<svg width="13" height="13" viewBox="0 0 13 13" fill="none" xmlns="http://www.w3.org/2000/svg">
<path fill-rule="evenodd" clip-rule="evenodd" d="M6.49601 12.97C10.0836 12.97 12.992 10.0666 12.992 6.48501C12.992 2.90344 10.0836 0 6.49601 0C2.90836 0 0 2.90344 0 6.48501C0 10.0666 2.90836 12.97 6.49601 12.97Z" fill="white"/>
<path fill-rule="evenodd" clip-rule="evenodd" d="M6.48683 12.0346C9.56195 12.0346 12.0548 9.54595 12.0548 6.47603C12.0548 3.40611 9.56195 0.91745 6.48683 0.91745C3.4117 0.91745 0.918823 3.40611 0.918823 6.47603C0.918823 9.54595 3.4117 12.0346 6.48683 12.0346Z" fill="#052A44"/>
<path d="M6.79817 8.25789H6.06661V6.78639H4.59534V6.05607H6.06661V4.58728H6.79817V6.05607H8.27217V6.78639H6.79817V8.25789Z" fill="white"/>
</svg>
